<svg width="199" height="189" xmlns="http://www.w3.org/2000/svg">
  <path d="M188.303 58.967L102.895 2.023a6.099 6.099 0 0 0-6.76 0L10.707 58.967C9.008 60.087 8 62.011 8 64.047v56.945a6.156 6.156 0 0 0 2.708 5.08l85.408 56.944a6.036 6.036 0 0 0 3.38 1.027 6.036 6.036 0 0 0 3.38-1.027l85.408-56.944c1.7-1.12 2.708-3.045 2.708-5.08V64.047a5.978 5.978 0 0 0-2.69-5.08zm-88.788 54.685L67.802 92.51l31.713-21.142 31.694 21.142-31.694 21.142zm6.088-52.873V18.495l68.319 45.552-31.713 21.142-36.606-24.41zm-12.195 0l-36.606 24.41-31.713-21.142 68.319-45.552V60.78zM45.8 92.51l-25.605 17.07V75.44L45.8 92.51zm11 7.34l36.607 24.41v42.284l-68.319-45.552L56.802 99.85zm48.802 24.391l36.606-24.41 31.713 21.142-68.319 45.552v-42.284zm47.607-31.73l25.605-17.071v34.14L153.21 92.51z" fill="#000" fill-rule="evenodd"/>
</svg>
