<?xml version="1.0" encoding="UTF-8" standalone="no"?>
<svg width="55px" height="55px" viewBox="0 0 55 55" version="1.1" xmlns="http://www.w3.org/2000/svg" xmlns:xlink="http://www.w3.org/1999/xlink" xmlns:sketch="http://www.bohemiancoding.com/sketch/ns">
    <!-- Generator: Sketch 3.1 (8751) - http://www.bohemiancoding.com/sketch -->
    <title>Untitled 4</title>
    <desc>Created with Sketch.</desc>
    <defs></defs>
    <g id="Page-1" stroke="none" stroke-width="1" fill="none" fill-rule="evenodd" sketch:type="MSPage">
        <path d="M27.501,55.004 C42.688,55.004 55.001,42.69 55.001,27.5 C55.001,12.312 42.687,0 27.501,0 C12.313,0 0,12.312 0,27.5 C0,42.689 12.312,55.004 27.501,55.004 Z" id="Path-path" stroke="#FFFFFF" fill="#FFFFFF" sketch:type="MSShapeGroup"></path>
        <g id="dribbble" sketch:type="MSLayerGroup" transform="translate(11.300000, 11.300000)" fill="#000000">
            <g id="Page-1" sketch:type="MSShapeGroup">
                <path d="M24.3,7.21750016 C24.0808013,7.5284087 22.2444288,9.98435414 17.9059259,11.6027027 C15.9074863,7.94836726 13.6910138,4.94601167 13.3540541,4.49705045 C14.2716573,4.27663021 15.227737,4.15945946 16.2129654,4.15945946 C19.3120626,4.15945946 22.1453229,5.31608563 24.3,7.21750016 L24.3,7.21750016 L24.3,7.21750016 Z M17.0383908,16.4499977 C10.8307344,18.4891385 7.52673342,24.0444827 7.25408432,24.5189189 C5.33173557,22.3512363 4.15945946,19.4835849 4.15945946,16.3436586 C4.15945946,16.2186224 4.16291072,16.0935863 4.16636197,15.9697187 C4.69210307,15.9802357 10.5258736,16.0573608 16.5368085,14.2297297 C16.8819339,14.9145071 17.2109535,15.6098016 17.5135135,16.305096 C17.3536054,16.3506699 17.1959981,16.398581 17.0383908,16.4499977 L17.0383908,16.4499977 L17.0383908,16.4499977 Z M16.2,0 C7.25297142,0 0,7.25297142 0,16.2 C0,25.1470286 7.25297142,32.4 16.2,32.4 C25.1470286,32.4 32.4,25.1470286 32.4,16.2 C32.4,7.25297142 25.1470286,0 16.2,0 L16.2,0 L16.2,0 Z M16.2,30.4297297 C8.35332047,30.4297297 1.97027027,24.0466795 1.97027027,16.2 C1.97027027,8.35332047 8.35332047,1.97027027 16.2,1.97027027 C24.0466795,1.97027027 30.4297297,8.35332047 30.4297297,16.2 C30.4297297,24.0466795 24.0466795,30.4297297 16.2,30.4297297 L16.2,30.4297297 L16.2,30.4297297 Z M19.6232462,14.9795892 C19.3742843,14.3971936 19.1058185,13.818224 18.827027,13.2483899 C23.2658916,11.4452477 25.2770907,8.87813955 25.5306418,8.53783784 C27.2022431,10.5716544 28.2141529,13.1604596 28.2405405,15.9810811 C27.8447255,15.8977186 23.8762498,15.0972102 19.8825337,15.5962433 C19.7976343,15.3918338 19.7115875,15.1862825 19.6232462,14.9795892 L19.6232462,14.9795892 L19.6232462,14.9795892 Z M15.5432432,12.3050151 C9.89444261,13.8198473 4.91855792,13.7977074 4.37837838,13.7907159 C5.16094617,10.0071313 7.686401,6.86210666 11.0659858,5.25405405 C11.3845533,5.69452063 13.542963,8.71369766 15.5432432,12.3050151 L15.5432432,12.3050151 L15.5432432,12.3050151 Z M18.3321995,18.1966924 C18.359028,18.1875021 18.3858565,18.1794606 18.412685,18.1702703 C20.1262098,22.5551917 20.8354154,26.2313115 21.0162162,27.2858982 C19.5511466,27.9004995 17.9391036,28.2405405 16.2489079,28.2405405 C13.4272492,28.2405405 10.8260509,27.2927908 8.75675676,25.7028692 C8.97605062,25.260586 11.4477723,20.5597481 18.3321995,18.1966924 L18.3321995,18.1966924 L18.3321995,18.1966924 Z M20.5795203,17.7063275 C24.323981,17.1048657 27.6128028,18.0908497 28.0216216,18.2205543 C27.489472,21.5618809 25.5812703,24.4486676 22.8999669,26.2702703 C22.7777779,25.5391041 22.1417108,22.0233076 20.5783784,17.7063275 L20.5795203,17.7063275 L20.5795203,17.7063275 Z" id="Imported-Layers"></path>
            </g>
        </g>
    </g>
</svg>