<?xml version="1.0" encoding="utf-8"?>
<!-- Generator: Adobe Illustrator 19.2.1, SVG Export Plug-In . SVG Version: 6.00 Build 0)  -->
<svg version="1.1" id="Layer_1" xmlns:sketch="http://www.bohemiancoding.com/sketch/ns"
	 xmlns="http://www.w3.org/2000/svg" xmlns:xlink="http://www.w3.org/1999/xlink" x="0px" y="0px" viewBox="0 0 32 32"
	 style="enable-background:new 0 0 32 32;" xml:space="preserve">
<title>Slice 2</title>
<desc>Created with Sketch.</desc>
<g id="Page-1_2_" sketch:type="MSPage">
	<g id="dribbble_1_" sketch:type="MSLayerGroup">
		<g id="Page-1_1_" sketch:type="MSShapeGroup">
			<g id="dribbble" transform="translate(0.300000, 0.300000)">
				<g id="Page-1">
					<path id="Imported-Layers" d="M23.7,6.8c-0.2,0.3-2,2.7-6.3,4.3c-2-3.6-4.2-6.6-4.5-7c0.9-0.2,1.9-0.3,2.8-0.3
						C18.8,3.8,21.6,5,23.7,6.8L23.7,6.8L23.7,6.8z M16.5,15.9c-6.1,2-9.4,7.5-9.7,8c-1.9-2.1-3.1-5-3.1-8.1c0-0.1,0-0.2,0-0.4
						c0.5,0,6.3,0.1,12.2-1.7c0.3,0.7,0.7,1.4,1,2C16.8,15.8,16.7,15.9,16.5,15.9L16.5,15.9L16.5,15.9z M15.7-0.3
						c-8.8,0-16,7.2-16,16s7.2,16,16,16s16-7.2,16-16S24.5-0.3,15.7-0.3L15.7-0.3L15.7-0.3z M15.7,29.8C8,29.8,1.6,23.4,1.6,15.7
						S8,1.6,15.7,1.6S29.8,8,29.8,15.7S23.4,29.8,15.7,29.8L15.7,29.8L15.7,29.8z M19.1,14.5c-0.2-0.6-0.5-1.1-0.8-1.7
						c4.4-1.8,6.4-4.3,6.6-4.7c1.7,2,2.7,4.6,2.7,7.4c-0.4-0.1-4.3-0.9-8.3-0.4C19.3,14.9,19.2,14.7,19.1,14.5L19.1,14.5L19.1,14.5z
						 M15.1,11.9c-5.6,1.5-10.5,1.5-11,1.5c0.8-3.7,3.3-6.8,6.6-8.4C10.9,5.3,13.1,8.3,15.1,11.9L15.1,11.9L15.1,11.9z M17.8,17.7
						C17.8,17.7,17.9,17.7,17.8,17.7c1.8,4.3,2.5,7.9,2.7,9c-1.4,0.6-3,0.9-4.7,0.9c-2.8,0-5.4-0.9-7.4-2.5
						C8.6,24.6,11,20,17.8,17.7L17.8,17.7L17.8,17.7z M20,17.2c3.7-0.6,6.9,0.4,7.4,0.5c-0.5,3.3-2.4,6.2-5.1,8
						C22.2,24.9,21.6,21.5,20,17.2L20,17.2L20,17.2z"/>
				</g>
			</g>
		</g>
	</g>
</g>
</svg>
