<?xml version="1.0" encoding="UTF-8" standalone="no"?>
<svg width="30px" height="25px" viewBox="0 0 30 25" version="1.1" xmlns="http://www.w3.org/2000/svg" xmlns:xlink="http://www.w3.org/1999/xlink" xmlns:sketch="http://www.bohemiancoding.com/sketch/ns">
    <!-- Generator: Sketch 3.1 (8751) - http://www.bohemiancoding.com/sketch -->
    <title>Untitled 2</title>
    <desc>Created with Sketch.</desc>
    <defs></defs>
    <g id="Page-1" stroke="none" stroke-width="1" fill="none" fill-rule="evenodd" sketch:type="MSPage">
        <g id="github" sketch:type="MSLayerGroup">
            <g id="Page-1" sketch:type="MSShapeGroup">
                <g id="github">
                    <g id="Group">
                        <path d="M29.7196875,16.6403846 C29.4628125,17.7836538 29.101875,18.7788462 28.6415625,19.6201923 C28.1821875,20.4615385 27.6,21.2009615 26.8921875,21.8432692 C26.184375,22.4875 25.4165625,23.0076923 24.5896875,23.4125 C23.7646875,23.8192308 22.8225,24.1538462 21.7621875,24.4019231 C20.701875,24.6605769 19.6228125,24.8384615 18.52125,24.9365385 C17.4234375,25.0365385 16.21125,25.0884615 14.88375,25.0884615 C13.5665625,25.0884615 12.3590625,25.0375 11.2603125,24.9365385 C10.1615625,24.8365385 9.084375,24.6576923 8.030625,24.4019231 C6.9759375,24.1461538 6.0375,23.8201923 5.2171875,23.4125 C4.3959375,23.0076923 3.631875,22.4826923 2.930625,21.8432692 C2.2275,21.2048077 1.6490625,20.4625 1.194375,19.6201923 C0.7396875,18.7759615 0.3834375,17.7846154 0.1246875,16.6403846 C-0.1321875,15.4990385 -0.260625,14.2211538 -0.260625,12.8096154 L-0.2625,12.8096154 C-0.2625,10.2923077 0.5578125,8.11538462 2.2021875,6.27788462 C2.1121875,6.03365385 2.0315625,5.75769231 1.9575,5.44807692 C1.880625,5.1375 1.8121875,4.69519231 1.7484375,4.12115385 C1.68375,3.54711538 1.708125,2.88461538 1.8225,2.13173077 C1.9359375,1.38173077 2.1459375,0.616346154 2.4525,-0.167307692 C2.5115625,-0.185576923 2.59125,-0.205769231 2.69625,-0.220192308 C2.8021875,-0.234615385 3.0496875,-0.221153846 3.4453125,-0.180769231 C3.845625,-0.138461538 4.2703125,-0.0490384615 4.7259375,0.0875 C5.1815625,0.225961538 5.791875,0.489423077 6.5615625,0.877884615 C7.3275,1.27019231 8.1309375,1.75769231 8.97375,2.34711538 C10.42125,1.94038462 12.4003125,1.73846154 14.9146875,1.73846154 C17.4375,1.73846154 19.423125,1.94038462 20.8678125,2.34711538 C21.710625,1.75769231 22.509375,1.26826923 23.26875,0.877884615 C24.02625,0.4875 24.646875,0.223076923 25.1259375,0.0855769231 C25.6059375,-0.0538461538 26.0259375,-0.141346154 26.3878125,-0.189423077 C26.750625,-0.235576923 27.013125,-0.243269231 27.16875,-0.213461538 L27.388125,-0.168269231 C27.695625,0.613461538 27.905625,1.38076923 28.02,2.13076923 C28.1353125,2.88173077 28.15875,3.54423077 28.0959375,4.11826923 C28.029375,4.69326923 27.9609375,5.13461538 27.8859375,5.44519231 C27.811875,5.75480769 27.729375,6.02980769 27.6403125,6.27307692 C29.28375,8.1125 30.106875,10.2884615 30.106875,12.8057692 C30.1059375,14.2211538 29.9775,15.4990385 29.7196875,16.6403846 L29.7196875,16.6403846 L29.7196875,16.6403846 Z" id="Shape" fill="#000000"></path>
                        <path d="M22.8890625,11.7826923 C22.3753125,11.5971154 21.7921875,11.4913462 21.1434375,11.4634615 C20.4965625,11.4384615 19.8740625,11.4442308 19.2815625,11.4788462 C18.6853125,11.5144231 17.9540625,11.5634615 17.0840625,11.6230769 C16.213125,11.6836538 15.4603125,11.7163462 14.8275,11.7163462 C14.195625,11.7163462 13.4428125,11.6846154 12.57,11.6230769 C11.6990625,11.5634615 10.966875,11.5153846 10.374375,11.4788462 C9.778125,11.4471154 9.1584375,11.4403846 8.50875,11.4634615 C7.86,11.4913462 7.27875,11.5942308 6.765,11.7826923 C6.2503125,11.9721154 5.7975,12.2451923 5.4121875,12.6105769 C4.1175,13.8317308 3.4678125,15.1721154 3.4678125,16.6336538 C3.4678125,17.5057692 3.57375,18.2817308 3.7875,18.9576923 C4.00125,19.6317308 4.27125,20.1971154 4.6040625,20.6538462 C4.935,21.1125 5.398125,21.5009615 5.9859375,21.8201923 C6.575625,22.1423077 7.1484375,22.3884615 7.7090625,22.5615385 C8.2678125,22.7307692 8.985,22.8682692 9.8615625,22.9644231 C10.7371875,23.0605769 11.5209375,23.1173077 12.2071875,23.1394231 C12.8971875,23.1596154 13.77,23.1692308 14.8284375,23.1692308 C15.8859375,23.1692308 16.760625,23.1567308 17.44875,23.1394231 C18.1340625,23.1182692 18.915,23.0605769 19.7971875,22.9644231 C20.671875,22.8682692 21.38625,22.7317308 21.946875,22.5615385 C22.509375,22.3884615 23.083125,22.1423077 23.67,21.8201923 C24.260625,21.4980769 24.721875,21.1125 25.0546875,20.6538462 C25.385625,20.1971154 25.659375,19.6326923 25.869375,18.9576923 C26.0821875,18.2788462 26.1890625,17.5086538 26.1890625,16.6336538 C26.1890625,15.1528846 25.54125,13.8105769 24.2465625,12.6105769 C23.85,12.2480769 23.401875,11.9730769 22.8890625,11.7826923 L22.8890625,11.7826923 Z M9.2278125,19.2480769 C8.180625,19.2480769 7.329375,17.9384615 7.329375,16.3269231 C7.329375,14.7163462 8.1796875,13.4096154 9.2278125,13.4096154 C10.2759375,13.4096154 11.1271875,14.7173077 11.1271875,16.3269231 C11.1290625,17.9375 10.276875,19.2480769 9.2278125,19.2480769 L9.2278125,19.2480769 Z M18.718125,16.3269231 C18.718125,14.7163462 19.569375,13.4096154 20.6175,13.4096154 C21.6646875,13.4096154 22.5140625,14.7173077 22.5140625,16.3269231 C22.515,17.9375 21.6646875,19.2480769 20.6175,19.2480769 C19.569375,19.2480769 18.718125,17.9384615 18.718125,16.3269231 L18.718125,16.3269231 Z" id="Shape" fill="#FFFFFF"></path>
                    </g>
                </g>
            </g>
        </g>
    </g>
</svg>