<?xml version="1.0" encoding="UTF-8" standalone="no"?>
<svg width="55px" height="55px" viewBox="0 0 55 55" version="1.1" xmlns="http://www.w3.org/2000/svg" xmlns:xlink="http://www.w3.org/1999/xlink" xmlns:sketch="http://www.bohemiancoding.com/sketch/ns">
    <!-- Generator: Sketch 3.1 (8751) - http://www.bohemiancoding.com/sketch -->
    <title>Untitled 2</title>
    <desc>Created with Sketch.</desc>
    <defs></defs>
    <g id="Page-1" stroke="none" stroke-width="1" fill="none" fill-rule="evenodd" sketch:type="MSPage">
        <g id="github" sketch:type="MSLayerGroup">
            <path d="M27.501,55.004 C42.688,55.004 55.001,42.69 55.001,27.5 C55.001,12.312 42.687,0 27.501,0 C12.313,0 0,12.312 0,27.5 C0,42.689 12.312,55.004 27.501,55.004 L27.501,55.004 Z" id="Path-path" stroke="#FFFFFF" fill="#FFFFFF" sketch:type="MSShapeGroup"></path>
            <g id="Page-1" transform="translate(12.000000, 14.000000)" sketch:type="MSShapeGroup">
                <g id="github">
                    <g id="Group">
                        <path d="M30.551,20.405 C30.061,21.28 29.44,22.049 28.685,22.717 C27.93,23.387 27.111,23.928 26.229,24.349 C25.349,24.772 24.344,25.12 23.213,25.378 C22.082,25.647 20.931,25.832 19.756,25.934 C18.585,26.038 17.292,26.092 15.876,26.092 C14.471,26.092 13.183,26.039 12.011,25.934 C10.839,25.83 9.69,25.644 8.566,25.378 C7.441,25.112 6.44,24.773 5.565,24.349 C4.689,23.928 3.874,23.382 3.126,22.717 C2.376,22.053 1.759,21.281 1.274,20.405 C0.789,19.527 0.409,18.496 0.133,17.306 C-0.141,16.119 -0.278,14.79 -0.278,13.322 C-0.28,10.704 0.595,8.44 2.349,6.529 C2.253,6.275 2.167,5.988 2.088,5.666 C2.006,5.343 1.933,4.883 1.865,4.286 C1.796,3.689 1.822,3 1.944,2.217 C2.065,1.437 2.289,0.641 2.616,-0.174 C2.679,-0.193 2.764,-0.214 2.876,-0.229 C2.989,-0.244 3.253,-0.23 3.675,-0.188 C4.102,-0.144 4.555,-0.051 5.041,0.091 C5.527,0.235 6.178,0.509 6.999,0.913 C7.816,1.321 8.673,1.828 9.572,2.441 C11.116,2.018 13.227,1.808 15.909,1.808 C18.6,1.808 20.718,2.018 22.259,2.441 C23.158,1.828 24.01,1.319 24.82,0.913 C25.628,0.507 26.29,0.232 26.801,0.089 C27.313,-0.056 27.761,-0.147 28.147,-0.197 C28.534,-0.245 28.814,-0.253 28.98,-0.222 L29.214,-0.175 C29.542,0.638 29.766,1.436 29.888,2.216 C30.011,2.997 30.036,3.686 29.969,4.283 C29.898,4.881 29.825,5.34 29.745,5.663 C29.666,5.985 29.578,6.271 29.483,6.524 C31.236,8.437 32.114,10.7 32.114,13.318 C32.113,14.79 31.976,16.119 31.701,17.306 C31.427,18.495 31.042,19.53 30.551,20.405 Z" id="Shape" fill="#000000"></path>
                        <path d="M24.415,12.254 C23.867,12.061 23.245,11.951 22.553,11.922 C21.863,11.896 21.199,11.902 20.567,11.938 C19.931,11.975 19.151,12.026 18.223,12.088 C17.294,12.151 16.491,12.185 15.816,12.185 C15.142,12.185 14.339,12.152 13.408,12.088 C12.479,12.026 11.698,11.976 11.066,11.938 C10.43,11.905 9.769,11.898 9.076,11.922 C8.384,11.951 7.764,12.058 7.216,12.254 C6.667,12.451 6.184,12.735 5.773,13.115 C4.392,14.385 3.699,15.779 3.699,17.299 C3.699,18.206 3.812,19.013 4.04,19.716 C4.268,20.417 4.556,21.005 4.911,21.48 C5.264,21.957 5.758,22.361 6.385,22.693 C7.014,23.028 7.625,23.284 8.223,23.464 C8.819,23.64 9.584,23.783 10.519,23.883 C11.453,23.983 12.289,24.042 13.021,24.065 C13.757,24.086 14.688,24.096 15.817,24.096 C16.945,24.096 17.878,24.083 18.612,24.065 C19.343,24.043 20.176,23.983 21.117,23.883 C22.05,23.783 22.812,23.641 23.41,23.464 C24.01,23.284 24.622,23.028 25.248,22.693 C25.878,22.358 26.37,21.957 26.725,21.48 C27.078,21.005 27.37,20.418 27.594,19.716 C27.821,19.01 27.935,18.209 27.935,17.299 C27.935,15.759 27.244,14.363 25.863,13.115 C25.44,12.738 24.962,12.452 24.415,12.254 L24.415,12.254 Z M9.843,20.018 C8.726,20.018 7.818,18.656 7.818,16.98 C7.818,15.305 8.725,13.946 9.843,13.946 C10.961,13.946 11.869,15.306 11.869,16.98 C11.871,18.655 10.962,20.018 9.843,20.018 L9.843,20.018 Z M19.966,16.98 C19.966,15.305 20.874,13.946 21.992,13.946 C23.109,13.946 24.015,15.306 24.015,16.98 C24.016,18.655 23.109,20.018 21.992,20.018 C20.874,20.018 19.966,18.656 19.966,16.98 L19.966,16.98 Z" id="Shape" fill="#FFFFFF"></path>
                    </g>
                </g>
            </g>
        </g>
    </g>
</svg>