<?xml version="1.0" encoding="UTF-8" standalone="no"?>
<svg width="55px" height="55px" viewBox="0 0 55 55" version="1.1" xmlns="http://www.w3.org/2000/svg" xmlns:xlink="http://www.w3.org/1999/xlink" xmlns:sketch="http://www.bohemiancoding.com/sketch/ns">
    <!-- Generator: Sketch 3.1 (8751) - http://www.bohemiancoding.com/sketch -->
    <title>Untitled 2</title>
    <desc>Created with Sketch.</desc>
    <defs></defs>
    <g id="Page-1" stroke="none" stroke-width="1" fill="none" fill-rule="evenodd" sketch:type="MSPage">
        <g id="github" sketch:type="MSLayerGroup">
            <g id="Group" sketch:type="MSShapeGroup">
                <path d="M-0.583,26.917 C-0.583,42.106 11.729,54.421 26.918,54.421 C42.105,54.421 54.418,42.107 54.418,26.917 C54.418,11.729 42.104,-0.583 26.918,-0.583 C11.73,-0.583 -0.583,11.729 -0.583,26.917 Z" id="Path" fill="#FFFFFF"></path>
                <path d="M42.701,32.306 C42.427,33.495 42.042,34.53 41.551,35.405 C41.061,36.28 40.44,37.049 39.685,37.717 C38.93,38.387 38.111,38.928 37.229,39.349 C36.349,39.772 35.344,40.12 34.213,40.378 C33.082,40.647 31.931,40.832 30.756,40.934 C29.585,41.038 28.292,41.092 26.876,41.092 C25.471,41.092 24.183,41.039 23.011,40.934 C21.839,40.83 20.69,40.644 19.566,40.378 C18.441,40.112 17.44,39.773 16.565,39.349 C15.689,38.928 14.874,38.382 14.126,37.717 C13.376,37.053 12.759,36.281 12.274,35.405 C11.789,34.527 11.409,33.496 11.133,32.306 C10.859,31.119 10.722,29.79 10.722,28.322 L10.72,28.322 C10.72,25.704 11.595,23.44 13.349,21.529 C13.253,21.275 13.167,20.988 13.088,20.666 C13.006,20.343 12.933,19.883 12.865,19.286 C12.796,18.689 12.822,18 12.944,17.217 C13.065,16.437 13.289,15.641 13.616,14.826 C13.679,14.807 13.764,14.786 13.876,14.771 C13.989,14.756 14.253,14.77 14.675,14.812 C15.102,14.856 15.555,14.949 16.041,15.091 C16.527,15.235 17.178,15.509 17.999,15.913 C18.816,16.321 19.673,16.828 20.572,17.441 C22.116,17.018 24.227,16.808 26.909,16.808 C29.6,16.808 31.718,17.018 33.259,17.441 C34.158,16.828 35.01,16.319 35.82,15.913 C36.628,15.507 37.29,15.232 37.801,15.089 C38.313,14.944 38.761,14.853 39.147,14.803 C39.534,14.755 39.814,14.747 39.98,14.778 L40.214,14.825 C40.542,15.638 40.766,16.436 40.888,17.216 C41.011,17.997 41.036,18.686 40.969,19.283 C40.898,19.881 40.825,20.34 40.745,20.663 C40.666,20.985 40.578,21.271 40.483,21.524 C42.236,23.437 43.114,25.7 43.114,28.318 C43.113,29.79 42.976,31.119 42.701,32.306 L42.701,32.306 Z" id="Shape" fill="#000000"></path>
                <path d="M35.415,27.254 C34.867,27.061 34.245,26.951 33.553,26.922 C32.863,26.896 32.199,26.902 31.567,26.938 C30.931,26.975 30.151,27.026 29.223,27.088 C28.294,27.151 27.491,27.185 26.816,27.185 C26.142,27.185 25.339,27.152 24.408,27.088 C23.479,27.026 22.698,26.976 22.066,26.938 C21.43,26.905 20.769,26.898 20.076,26.922 C19.384,26.951 18.764,27.058 18.216,27.254 C17.667,27.451 17.184,27.735 16.773,28.115 C15.392,29.385 14.699,30.779 14.699,32.299 C14.699,33.206 14.812,34.013 15.04,34.716 C15.268,35.417 15.556,36.005 15.911,36.48 C16.264,36.957 16.758,37.361 17.385,37.693 C18.014,38.028 18.625,38.284 19.223,38.464 C19.819,38.64 20.584,38.783 21.519,38.883 C22.453,38.983 23.289,39.042 24.021,39.065 C24.757,39.086 25.688,39.096 26.817,39.096 C27.945,39.096 28.878,39.083 29.612,39.065 C30.343,39.043 31.176,38.983 32.117,38.883 C33.05,38.783 33.812,38.641 34.41,38.464 C35.01,38.284 35.622,38.028 36.248,37.693 C36.878,37.358 37.37,36.957 37.725,36.48 C38.078,36.005 38.37,35.418 38.594,34.716 C38.821,34.01 38.935,33.209 38.935,32.299 C38.935,30.759 38.244,29.363 36.863,28.115 C36.44,27.738 35.962,27.452 35.415,27.254 Z M20.843,35.018 C19.726,35.018 18.818,33.656 18.818,31.98 C18.818,30.305 19.725,28.946 20.843,28.946 C21.961,28.946 22.869,30.306 22.869,31.98 C22.871,33.655 21.962,35.018 20.843,35.018 Z M30.966,31.98 C30.966,30.305 31.874,28.946 32.992,28.946 C34.109,28.946 35.015,30.306 35.015,31.98 C35.016,33.655 34.109,35.018 32.992,35.018 C31.874,35.018 30.966,33.656 30.966,31.98 Z" id="Shape" fill="#FFFFFF"></path>
            </g>
        </g>
    </g>
</svg>