<?xml version="1.0" encoding="UTF-8" standalone="no"?>
<svg width="55px" height="55px" viewBox="0 0 55 55" version="1.1" xmlns="http://www.w3.org/2000/svg" xmlns:xlink="http://www.w3.org/1999/xlink" xmlns:sketch="http://www.bohemiancoding.com/sketch/ns">
    <!-- Generator: Sketch 3.1 (8751) - http://www.bohemiancoding.com/sketch -->
    <title>Untitled 3</title>
    <desc>Created with Sketch.</desc>
    <defs></defs>
    <g id="Page-1" stroke="none" stroke-width="1" fill="none" fill-rule="evenodd" sketch:type="MSPage">
        <path d="M4.94630669,43.2406929 C9.91762906,50.3523343 18.1659592,55.004 27.501,55.004 C38.130021,55.004 47.3512797,48.9722728 51.9289157,40.1443362 C53.8919157,36.3587053 55.001,32.0588794 55.001,27.5 C55.001,24.2157912 54.4252161,21.0660597 53.3691156,18.1462122 C49.5412227,7.5630684 39.4032236,0 27.501,0 C12.313,0 0,12.312 0,27.5 C0,33.3539592 1.82881436,38.7810168 4.94630669,43.2406929 Z" id="Path-path" stroke="#FFFFFF" fill="#FFFFFF" sketch:type="MSShapeGroup"></path>
        <g id="instagram" sketch:type="MSLayerGroup" transform="translate(11.300000, 11.300000)" fill="#000000">
            <g id="Page-1" sketch:type="MSShapeGroup">
                <path d="M27.0216,0 L5.3784,0 C2.420928,0 0,2.420928 0,5.3784 L0,27.0216 C0,29.979072 2.420928,32.4 5.3784,32.4 L27.0216,32.4 C29.979072,32.4 32.4,29.979072 32.4,27.0216 L32.4,5.3784 C32.4,2.420928 29.979072,0 27.0216,0 L27.0216,0 L27.0216,0 Z M11.142209,13.8857143 L22.8006481,13.8857143 C23.0223062,14.4823118 23.1428571,15.1240505 23.1428571,15.79141 C23.1428571,18.9940038 20.3740751,21.6 16.9714286,21.6 C13.5687821,21.6 10.8,18.9940038 10.8,15.79141 C10.8,15.1240505 10.9205509,14.4823118 11.142209,13.8857143 L11.142209,13.8857143 L11.142209,13.8857143 Z M29.3142857,13.8869839 L29.3142857,25.7882993 C29.3142857,26.8788934 28.3887361,27.7714286 27.2564846,27.7714286 L6.68637257,27.7714286 C5.55412114,27.7714286 4.62857143,26.8788934 4.62857143,25.7870295 L4.62857143,13.8857143 L7.84627201,13.8857143 C7.69749943,14.5243277 7.61718858,15.1870636 7.61718858,15.8688436 C7.61718858,20.8431719 11.8131017,24.889416 16.9714286,24.889416 C22.1284389,24.889416 26.324352,20.8431719 26.324352,15.8688436 C26.324352,15.1883332 26.2453577,14.5243277 26.0952686,13.8857143 L29.3142857,13.8857143 L29.3142857,13.8869839 L29.3142857,13.8869839 Z M29.3142857,8.10037029 C29.3142857,8.73578057 28.7929234,9.25714286 28.1575131,9.25714286 L25.8424869,9.25714286 C25.2055954,9.25714286 24.6857143,8.73578057 24.6857143,8.10037029 L24.6857143,5.785344 C24.6857143,5.14993371 25.2070766,4.62857143 25.8424869,4.62857143 L28.1575131,4.62857143 C28.7944046,4.62857143 29.3142857,5.14993371 29.3142857,5.785344 L29.3142857,8.10037029 L29.3142857,8.10037029 Z" id="Imported-Layers"></path>
            </g>
        </g>
    </g>
</svg>