<?xml version="1.0" encoding="utf-8"?>
<!-- Generator: Adobe Illustrator 19.2.1, SVG Export Plug-In . SVG Version: 6.00 Build 0)  -->
<svg version="1.1" id="Layer_1" xmlns:sketch="http://www.bohemiancoding.com/sketch/ns"
	 xmlns="http://www.w3.org/2000/svg" xmlns:xlink="http://www.w3.org/1999/xlink" x="0px" y="0px" viewBox="0 0 32 32"
	 style="enable-background:new 0 0 32 32;" xml:space="preserve">
<title>Slice 2</title>
<desc>Created with Sketch.</desc>
<path d="M55.6,12.3L55.6,12.3L55.6,12.3C55.5,12.4,55.6,12.4,55.6,12.3z"/>
<path d="M32,19.4v11.4h-6.7V20.2c0-2.7-0.8-4.5-3.2-4.5c-1.9,0-2.9,1.2-3.4,2.4c-0.2,0.4-0.2,1-0.2,1.6v11.1h-6.9
	c0,0,0.1-18.6,0-20.5h6.9v2.8c0,0,0,0,0,0.1h0v-0.1c0.9-1.4,2.5-3.3,6-3.3C28.9,9.9,32,13.3,32,19.4z"/>
<rect x="0.4" y="10.5" width="6.8" height="20.4"/>
<path d="M7.4,4.9c0,2.1-1.4,3.7-3.7,3.7h0C1.4,8.6,0,7,0,4.9c0-2.1,1.4-3.7,3.7-3.7C5.9,1.2,7.3,2.8,7.4,4.9z"/>
</svg>
