<?xml version="1.0" encoding="UTF-8" standalone="no"?>
<svg width="55px" height="55px" viewBox="0 0 55 55" version="1.1" xmlns="http://www.w3.org/2000/svg" xmlns:xlink="http://www.w3.org/1999/xlink" xmlns:sketch="http://www.bohemiancoding.com/sketch/ns">
    <!-- Generator: Sketch 3.1 (8751) - http://www.bohemiancoding.com/sketch -->
    <title>Untitled 5</title>
    <desc>Created with Sketch.</desc>
    <defs></defs>
    <g id="Page-1" stroke="none" stroke-width="1" fill="none" fill-rule="evenodd" sketch:type="MSPage">
        <path d="M27.501,55.004 C42.688,55.004 55.001,42.69 55.001,27.5 C55.001,12.312 42.687,0 27.501,0 C12.313,0 0,12.312 0,27.5 C0,42.689 12.312,55.004 27.501,55.004 Z" id="Path-path" stroke="#FFFFFF" fill="#FFFFFF" sketch:type="MSShapeGroup"></path>
        <g id="twitter" sketch:type="MSLayerGroup" transform="translate(11.300000, 14.502326)" fill="#000000">
            <g id="Page-1" sketch:type="MSShapeGroup">
                <path d="M32.4,3.07701615 C31.2080802,3.59902137 29.9267341,3.95171608 28.5823142,4.11036474 C29.9548148,3.29835659 31.008923,2.0121084 31.5053041,0.479784222 C30.2209339,1.23208588 28.7983199,1.77797371 27.2841196,2.07224136 C26.0714632,0.79708152 24.3438491,0 22.4321981,0 C18.7609643,0 15.7848369,2.93798533 15.7848369,6.56216872 C15.7848369,7.07649741 15.8435905,7.57717891 15.9567775,8.05781608 C10.4322142,7.78401921 5.53406757,5.1714342 2.25553215,1.20137969 C1.68311688,2.17075705 1.35565215,3.29793012 1.35565215,4.50058924 C1.35565215,6.77711206 2.52899544,8.78580867 4.31277101,9.96287929 C3.22323795,9.9287613 2.19807462,9.63364069 1.30208272,9.14191518 C1.30165071,9.16920957 1.30165071,9.19693043 1.30165071,9.22465129 C1.30165071,12.4040214 3.59303982,15.0562686 6.63396891,15.659304 C6.07624204,15.8094231 5.48913838,15.8896005 4.8825942,15.8896005 C4.45403877,15.8896005 4.03801169,15.8482324 3.63192085,15.7718934 C4.4777994,18.3789343 6.93292088,20.2763209 9.84165444,20.3292038 C7.56668178,22.0892656 4.70028534,23.1383937 1.5859143,23.1383937 C1.04935598,23.1383937 0.52014187,23.1072611 0,23.0467016 C2.94156644,24.9086909 6.43610763,25.9953488 10.1898557,25.9953488 C22.4166458,25.9953488 29.1028881,15.9957927 29.1028881,7.32427931 C29.1028881,7.03982057 29.0964078,6.75664126 29.0834476,6.47516785 C30.3820743,5.54843798 31.5087603,4.3926911 32.4,3.07701615 L18.117697,11.8919695" id="Imported-Layers-copy"></path>
            </g>
        </g>
    </g>
</svg>