<?xml version="1.0" encoding="UTF-8" standalone="no"?>
<svg width="258px" height="207px" viewBox="0 0 258 207" version="1.1" xmlns="http://www.w3.org/2000/svg" xmlns:xlink="http://www.w3.org/1999/xlink" xmlns:sketch="http://www.bohemiancoding.com/sketch/ns">
    <title>twitter</title>
    <description>Created with Sketch (http://www.bohemiancoding.com/sketch)</description>
    <defs></defs>
    <g id="Page-1" stroke="none" stroke-width="1" fill="none" fill-rule="evenodd" sketch:type="MSPage">
        <path d="M258,24.5021656 C248.508787,28.6588739 238.305475,31.4673688 227.599909,32.7306822 C238.529081,26.2646914 246.922905,16.0223447 250.87557,3.82050399 C240.648177,9.81105424 229.319955,14.1579388 217.262434,16.5011812 C207.606096,6.34713062 193.849169,0 178.626763,0 C149.392864,0 125.694072,23.3950684 125.694072,52.2543065 C125.694072,56.3498868 126.161924,60.336795 127.063228,64.164091 C83.0713352,61.9838567 44.0675751,41.179939 17.960719,9.56654198 C13.4025974,17.285658 10.7950079,26.2612954 10.7950079,35.8380254 C10.7950079,53.9658923 20.138297,69.961069 34.3424358,79.3340388 C25.6665244,79.0623585 17.5031868,76.712324 10.3684365,72.796732 C10.3649964,73.0140762 10.3649964,73.2348164 10.3649964,73.4555566 C10.3649964,98.7727631 28.611243,119.892509 52.8260487,124.694458 C48.3848903,125.889851 43.7098056,126.5283 38.8799168,126.5283 C35.4673458,126.5283 32.1545375,126.198888 28.9208512,125.591003 C35.6565508,146.350773 55.2065922,161.459592 78.3687298,161.880697 C60.2532068,175.896004 37.4281981,184.250172 12.6285768,184.250172 C8.35598283,184.250172 4.14187045,184.002264 0,183.520031 C23.4235846,198.346983 51.2504867,207 81.1414438,207 C178.50292,207 231.74522,127.373905 231.74522,58.3229649 C231.74522,56.0578305 231.693618,53.8028841 231.590416,51.5615218 C241.931332,44.1820061 250.903091,34.9788365 258,24.5021656 L144.27055,94.6953125" id="Imported-Layers-copy" fill="#000000" sketch:type="MSShapeGroup"></path>
    </g>
</svg>