<?xml version="1.0" encoding="UTF-8" standalone="no"?>
<svg width="30px" height="25px" viewBox="0 0 30 25" version="1.1" xmlns="http://www.w3.org/2000/svg" xmlns:xlink="http://www.w3.org/1999/xlink" xmlns:sketch="http://www.bohemiancoding.com/sketch/ns">
    <!-- Generator: Sketch 3.1.1 (8761) - http://www.bohemiancoding.com/sketch -->
    <title>twitter2</title>
    <desc>Created with Sketch.</desc>
    <defs></defs>
    <g id="Page-1" stroke="none" stroke-width="1" fill="none" fill-rule="evenodd" sketch:type="MSPage">
        <g id="twitter2" sketch:type="MSLayerGroup" fill="#000000">
            <g id="Page-1" sketch:type="MSShapeGroup">
                <path d="M30,2.95919874 C28.8963706,3.46121665 27.709939,3.80040686 26.4651057,3.95298094 C27.7359397,3.17206418 28.7119657,1.93506579 29.1715779,0.461413525 C27.9823462,1.18490993 26.665111,1.70989599 25.2630737,1.99289628 C24.1402437,0.766561669 22.540601,0 20.7705538,0 C17.3712633,0 14.6155898,2.82549135 14.6155898,6.31090658 C14.6155898,6.80554188 14.6699912,7.28705254 14.774794,7.74928635 C9.65945758,7.48597303 5.12413664,4.97342258 2.0884557,1.15537947 C1.55844156,2.08763986 1.25523348,3.17165403 1.25523348,4.32826394 C1.25523348,6.51761984 2.34166244,8.44940447 3.99330649,9.58140565 C2.98447958,9.54859402 2.03525428,9.26477343 1.20563215,8.79187585 C1.20523214,8.81812514 1.20523214,8.84478459 1.20523214,8.87144403 C1.20523214,11.9290777 3.32688872,14.4797716 6.1425638,15.0597171 C5.62615003,15.2040883 5.08253553,15.2811957 4.52092056,15.2811957 C4.12410998,15.2811957 3.73889971,15.2414116 3.36288967,15.1679955 C4.14611056,17.6752141 6.41937119,19.4999507 9.112643,19.5508088 C7.00618684,21.2434787 4.35211606,22.2524362 1.46843916,22.2524362 C0.97162591,22.2524362 0.481612843,22.2224957 0,22.164255 C2.72367263,23.9549496 5.95935892,25 9.4350516,25 C20.7561535,25 26.9471186,15.3833219 26.9471186,7.04383634 C26.9471186,6.77026938 26.9411184,6.49793286 26.9291181,6.22723693 C28.1315502,5.33599107 29.174778,4.22449716 30,2.95919874 L16.7756453,11.4366319" id="Imported-Layers-copy"></path>
            </g>
        </g>
    </g>
</svg>