<?xml version="1.0" encoding="UTF-8" standalone="no"?>
<svg width="146px" height="142px" viewBox="0 0 146 142" version="1.1" xmlns="http://www.w3.org/2000/svg" xmlns:xlink="http://www.w3.org/1999/xlink" xmlns:sketch="http://www.bohemiancoding.com/sketch/ns">
    <title>dribbble</title>
    <description>Created with Sketch (http://www.bohemiancoding.com/sketch)</description>
    <defs></defs>
    <g id="Page-1" stroke="none" stroke-width="1" fill="none" fill-rule="evenodd" sketch:type="MSPage">
        <path d="M110,30.9688279 C108.998722,32.3890274 100.610354,43.6075436 80.7925011,51 C71.6638262,34.3073566 61.539199,20.5928928 60,18.5420823 C64.1915211,17.5352244 68.5587985,17 73.0592245,17 C87.2155944,17 100.157648,22.2833541 110,30.9688279 L110,30.9688279 Z M76.8296864,73.1419648 C48.473725,82.4565588 33.3813749,107.832822 32.1359407,110 C23.3548415,100.09824 18,86.9990914 18,72.6562181 C18,72.0850653 18.015765,71.5139125 18.03153,70.9480977 C20.4330634,70.9961386 47.0811509,71.3484384 74.5385079,63 C76.1150069,66.1279955 77.6179359,69.3040318 79,72.4800681 C78.2695555,72.6882453 77.549621,72.9070982 76.8296864,73.1419648 L76.8296864,73.1419648 Z M73,-2 C32.1308571,-2 -1,31.1308571 -1,72 C-1,112.869143 32.1308571,146 73,146 C113.869143,146 147,112.869143 147,72 C147,31.1308571 113.869143,-2 73,-2 L73,-2 Z M73,137 C37.1571429,137 8,107.842857 8,72 C8,36.1571429 37.1571429,7 73,7 C108.842857,7 138,36.1571429 138,72 C138,107.842857 108.842857,137 73,137 L73,137 Z M88.6370506,66.4252838 C87.4998172,63.7649586 86.2734918,61.1202823 85,58.5173366 C105.276295,50.280761 114.463254,38.5544646 115.62145,37 C123.25716,46.2902731 127.879464,58.1156797 128,71 C126.191956,70.6192083 108.064351,66.9625652 89.8214503,69.2420988 C89.433638,68.3083768 89.040585,67.3694385 88.6370506,66.4252838 L88.6370506,66.4252838 Z M70,54.2080938 C44.1968366,61.1276975 21.4674868,61.0265648 19,60.9946282 C22.5746924,43.7115873 34.1107206,29.3454255 49.5483304,22 C51.0035149,24.0120078 60.8629174,37.8033103 70,54.2080938 L70,54.2080938 Z M82.7396765,81.1206936 C82.8622265,81.0787132 82.9847764,81.0419804 83.1073264,81 C90.9345385,101.029888 94.1741199,117.82204 95,122.639288 C88.3077069,125.446726 80.9440533,127 73.2234063,127 C60.3343482,127 48.4523311,122.670773 39,115.408168 C40.0017127,113.387862 51.2922931,91.9148985 82.7396765,81.1206936 L82.7396765,81.1206936 Z M93.0052163,78.8807551 C110.109543,76.1333373 125.132556,80.6372149 127,81.2296925 C124.569193,96.4925422 115.852716,109.679099 103.604787,118 C103.04664,114.660105 100.141148,98.600294 93,78.8807551 L93.0052163,78.8807551 L93.0052163,78.8807551 Z" id="Imported-Layers" fill="#000000" sketch:type="MSShapeGroup"></path>
    </g>
</svg>