<?xml version="1.0" encoding="UTF-8" standalone="no"?>
<svg width="146px" height="142px" viewBox="0 0 146 142" version="1.1" xmlns="http://www.w3.org/2000/svg" xmlns:xlink="http://www.w3.org/1999/xlink" xmlns:sketch="http://www.bohemiancoding.com/sketch/ns">
    <title>Instagram</title>
    <description>Created with Sketch (http://www.bohemiancoding.com/sketch)</description>
    <defs></defs>
    <g id="Page-1" stroke="none" stroke-width="1" fill="none" fill-rule="evenodd" sketch:type="MSPage">
        <path d="M122.598,-2 L24.402,-2 C10.98384,-2 0,8.98384 0,22.402 L0,120.598 C0,134.01616 10.98384,145 24.402,145 L122.598,145 C136.01616,145 147,134.01616 147,120.598 L147,22.402 C147,8.98384 136.01616,-2 122.598,-2 L122.598,-2 Z M50.552615,61 L103.447385,61 C104.453056,63.7067848 105,66.6183774 105,69.6462122 C105,84.1764985 92.4379332,96 77,96 C61.5620668,96 49,84.1764985 49,69.6462122 C49,66.6183774 49.5469439,63.7067848 50.552615,61 L50.552615,61 Z M133,61.0057603 L133,115.002469 C133,119.950535 128.800747,124 123.66368,124 L30.33632,124 C25.1992533,124 21,119.950535 21,114.996708 L21,61 L35.5988267,61 C34.92384,63.8974125 34.5594667,66.9042699 34.5594667,69.9975313 C34.5594667,92.566243 53.59648,110.924202 77,110.924202 C100.397547,110.924202 119.43456,92.566243 119.43456,69.9975313 C119.43456,66.9100302 119.07616,63.8974125 118.3952,61 L133,61 L133,61.0057603 L133,61.0057603 Z M133,34.75168 C133,37.63456 130.63456,40 127.75168,40 L117.24832,40 C114.35872,40 112,37.63456 112,34.75168 L112,24.24832 C112,21.36544 114.36544,19 117.24832,19 L127.75168,19 C130.64128,19 133,21.36544 133,24.24832 L133,34.75168 L133,34.75168 Z" id="Imported-Layers" fill="#000000" sketch:type="MSShapeGroup"></path>
    </g>
</svg>