<?xml version="1.0" encoding="UTF-8" standalone="no"?>
<svg width="129px" height="129px" viewBox="0 0 129 129" version="1.1" xmlns="http://www.w3.org/2000/svg" xmlns:xlink="http://www.w3.org/1999/xlink" xmlns:sketch="http://www.bohemiancoding.com/sketch/ns">
    <!-- Generator: Sketch 3.0 (7573) - http://www.bohemiancoding.com/sketch -->
    <title>Artboard 2</title>
    <description>Created with Sketch.</description>
    <defs></defs>
    <g id="Page-1" stroke="none" stroke-width="1" fill="none" fill-rule="evenodd" sketch:type="MSPage">
        <g id="Artboard-2" sketch:type="MSArtboardGroup" fill="#000000">
            <g id="SBX_logo_icon" sketch:type="MSLayerGroup" transform="translate(14.000000, 9.000000)">
                <path d="M100.193364,53.5593699 L100.193364,53.5571598 L91.2357023,53.5571598 L19.3939967,53.5571598 L69.8647704,19.5404859 L54.4992097,45.5998345 C54.4379142,45.7157071 54.3999996,45.8457876 54.3999996,45.98755 C54.3999996,46.4324126 54.7620849,46.7964485 55.2097942,46.7964485 L55.2097942,46.7964485 L61.3169031,46.7964485 L61.3194308,46.7917125 L75.8113738,46.7917125 C75.8966818,46.7939226 75.9794623,46.7964485 76.0647703,46.7964485 C83.8480246,46.7964485 90.1586091,40.4900716 90.1586091,32.7136591 C90.1586091,25.5437626 84.7971557,19.6241541 77.8609788,18.7429537 L88.1677718,1.26196998 C88.2552915,1.13188951 88.3074242,0.975919242 88.3074242,0.807951258 C88.3074242,0.362141498 87.9453389,0 87.4979456,0 C87.3276454,0 87.1690356,0.0533582503 87.0388618,0.144288286 L87.0388618,0.143341099 L77.5178509,6.55959177 L77.5131115,6.56906365 L59.6126377,18.6343428 L18.6603474,18.6343428 C18.227172,18.6343428 17.8745654,18.9775406 17.8552921,19.4053537 L17.8552921,19.4394525 L17.8552921,25.1131079 L17.8552921,46.7797148 L0.402211687,58.5434725 C0.163033174,58.6855507 0,58.9457116 0,59.2437601 C0,59.6883069 0.362085305,60.0501327 0.809478666,60.0501327 L0.816429693,60.0501327 L9.76176927,60.0501327 L9.78072662,60.0384507 L81.6221162,60.0384507 L34.9816743,91.4756163 L48.7680881,68.0857589 C48.8556078,67.9345246 48.9244862,67.7877105 48.9244862,67.6077448 C48.9244862,67.1723541 48.5763029,66.8152642 48.1409159,66.8035822 L48.1409159,66.8035822 L18.6625591,66.8035822 C18.2173774,66.8035822 17.8578198,67.165408 17.8578198,67.6102706 L17.8552921,67.6102706 L17.8552921,94.1580524 L17.8578198,94.1580524 C17.8578198,94.5959689 18.2104264,94.952743 18.6483411,94.9622149 L25.4018955,94.9622149 L16.6881515,109.741819 L16.6906792,109.741819 C16.6031594,109.869373 16.5532384,110.025659 16.5532384,110.191102 C16.5532384,110.635964 16.9153237,111 17.3627171,111 C17.5377566,111 17.698894,110.943169 17.8312795,110.848766 L41.3895731,94.9694767 C46.8720375,94.971371 75.9197466,94.9694767 76.0641384,94.9694767 C83.8473927,94.9694767 90.1579771,88.6653099 90.1579771,80.8847929 C90.1579771,75.0494842 86.6050546,70.0413861 81.5415475,67.9054775 L100.561769,55.087184 C100.822116,54.9523675 100.999999,54.682419 100.999999,54.3679526 C101.000631,53.9211957 100.640757,53.5593699 100.193364,53.5593699 L100.193364,53.5593699 Z M76.1188617,25.0021808 C76.145427,25.0009346 76.174584,25 76.2014732,25 C80.5095826,25 84,28.3574603 84,32.4993769 C84,36.640982 80.5095826,40 76.2014732,40 C76.174584,40 76.145427,39.9978192 76.1188617,39.9953269 L65,40 L74.1893159,25.0021808 L76.1188617,25.0021808 L76.1188617,25.0021808 Z M24,25 L50,25 L24,42 L24,25 L24,25 Z M24,88 L24,73 L38,73 L28.9372475,88 L24,88 L24,88 Z M84,80.4998442 C84,84.6432651 80.559959,88 76.3140275,88 L76.3140275,87.9956382 L51,87.9956382 L73.785243,73 L76.3140275,73 C80.559959,73.0003116 84,76.3570464 84,80.4998442 L84,80.4998442 Z" id="Shape" sketch:type="MSShapeGroup"></path>
            </g>
        </g>
    </g>
</svg>